<?xml version="1.0" standalone="no"?><!DOCTYPE svg PUBLIC "-//W3C//DTD SVG 1.1//EN" "http://www.w3.org/Graphics/SVG/1.1/DTD/svg11.dtd"><svg t="1680255035642" class="icon" viewBox="0 0 1024 1024" version="1.1" xmlns="http://www.w3.org/2000/svg" p-id="7510" xmlns:xlink="http://www.w3.org/1999/xlink" width="200" height="200"><path d="M741.9 281.7v663h-663v-663h663m0.8-76.1H78.1c-41.3 0-76.1 34-76.1 76.1v664.6c0 41.3 34 76.1 76.1 76.1h664.6c41.3 0 76.1-34 76.1-76.1V280.9c-0.8-42.1-34-75.3-76.1-75.3z m204.8-204H281.3c-41.3 0-74.5 34-75.3 74.5v77.7h76.1V77.7h663v663H869v76.1h77.7c41.3 0 74.5-34 75.3-75.3V76.1c0-40.5-34-74.5-74.5-74.5z" p-id="7511"></path></svg>