<?xml version="1.0" standalone="no"?><!DOCTYPE svg PUBLIC "-//W3C//DTD SVG 1.1//EN" "http://www.w3.org/Graphics/SVG/1.1/DTD/svg11.dtd"><svg t="1680484888304" class="icon" viewBox="0 0 1024 1024" version="1.1" xmlns="http://www.w3.org/2000/svg" p-id="27894" xmlns:xlink="http://www.w3.org/1999/xlink" width="200" height="200"><path d="M172.8 300.8h256v128h-256v-128z" fill="#2D8DFE" opacity=".1" p-id="27895"></path><path d="M172.8 723.2h256v128h-256v-128z" fill="#2D8DFE" opacity=".1" p-id="27896"></path><path d="M595.2 300.8h256v128h-256v-128z" fill="#2D8DFE" opacity=".1" p-id="27897"></path><path d="M595.2 723.2h256v128h-256v-128z" fill="#2D8DFE" opacity=".1" p-id="27898"></path><path d="M428.8 460.8h-256c-19.2 0-32-12.8-32-32v-256c0-19.2 12.8-32 32-32h256c19.2 0 32 12.8 32 32v256c0 12.8-19.2 32-32 32z m-224-64h192v-192h-192v192zM428.8 883.2h-256c-19.2 0-32-12.8-32-32v-256c0-19.2 12.8-32 32-32h256c19.2 0 32 12.8 32 32v256c0 19.2-19.2 32-32 32z m-224-64h192v-192h-192v192zM851.2 460.8h-256c-19.2 0-32-12.8-32-32v-256c0-19.2 12.8-32 32-32h256c19.2 0 32 12.8 32 32v256c0 12.8-12.8 32-32 32z m-224-64h192v-192h-192v192zM851.2 883.2h-256c-19.2 0-32-12.8-32-32v-256c0-19.2 12.8-32 32-32h256c19.2 0 32 12.8 32 32v256c0 19.2-12.8 32-32 32z m-224-64h192v-192h-192v192z" fill="#2D8DFE" p-id="27899"></path></svg>